<svg xmlns="http://www.w3.org/2000/svg" viewBox="0 0 1024 706">
  <path d="M 251.0,93.0 L 249.0,98.0 L 275.0,136.0 L 302.0,203.0 L 304.0,224.0 L 294.0,230.0 L 288.0,242.0 L 305.0,290.0 L 327.0,323.0 L 330.0,355.0 L 321.0,398.0 L 310.0,414.0 L 301.0,415.0 L 291.0,425.0 L 290.0,435.0 L 271.0,458.0 L 260.0,519.0 L 246.0,563.0 L 235.0,576.0 L 237.0,625.0 L 234.0,613.0 L 231.0,615.0 L 236.0,647.0 L 250.0,642.0 L 260.0,647.0 L 278.0,646.0 L 305.0,632.0 L 317.0,634.0 L 344.0,653.0 L 556.0,651.0 L 581.0,672.0 L 654.0,674.0 L 682.0,682.0 L 700.0,676.0 L 713.0,681.0 L 809.0,661.0 L 775.0,633.0 L 745.0,602.0 L 739.0,589.0 L 739.0,437.0 L 839.0,436.0 L 832.0,424.0 L 839.0,405.0 L 839.0,328.0 L 828.0,332.0 L 809.0,328.0 L 795.0,335.0 L 763.0,332.0 L 751.0,340.0 L 748.0,323.0 L 754.0,320.0 L 754.0,297.0 L 748.0,277.0 L 731.0,251.0 L 738.0,202.0 L 729.0,181.0 L 732.0,156.0 L 728.0,144.0 L 667.0,143.0 L 669.0,125.0 L 615.0,130.0 L 603.0,179.0 L 568.0,175.0 L 520.0,185.0 L 490.0,143.0 L 476.0,106.0 L 477.0,96.0 L 467.0,79.0 L 294.0,79.0 Z M 466.0,483.0 L 467.0,484.0 L 467.0,572.0 L 466.0,573.0 L 464.0,573.0 L 463.0,574.0 L 448.0,574.0 L 447.0,573.0 L 440.0,573.0 L 439.0,574.0 L 438.0,573.0 L 437.0,574.0 L 436.0,574.0 L 434.0,572.0 L 434.0,530.0 L 435.0,529.0 L 435.0,526.0 L 436.0,525.0 L 436.0,521.0 L 437.0,520.0 L 437.0,518.0 L 438.0,517.0 L 438.0,516.0 L 439.0,515.0 L 439.0,514.0 L 440.0,513.0 L 440.0,512.0 L 441.0,511.0 L 442.0,508.0 L 445.0,505.0 L 445.0,504.0 L 447.0,502.0 L 447.0,501.0 L 448.0,500.0 L 449.0,500.0 L 449.0,499.0 L 465.0,483.0 Z M 417.0,343.0 L 418.0,344.0 L 418.0,443.0 L 419.0,444.0 L 418.0,446.0 L 405.0,459.0 L 404.0,459.0 L 404.0,460.0 L 398.0,466.0 L 398.0,467.0 L 392.0,474.0 L 392.0,475.0 L 390.0,477.0 L 389.0,480.0 L 386.0,484.0 L 385.0,483.0 L 385.0,344.0 L 386.0,343.0 Z M 466.0,314.0 L 467.0,315.0 L 467.0,392.0 L 466.0,393.0 L 465.0,396.0 L 460.0,401.0 L 460.0,402.0 L 449.0,413.0 L 448.0,413.0 L 447.0,414.0 L 447.0,415.0 L 435.0,427.0 L 433.0,424.0 L 434.0,423.0 L 434.0,419.0 L 433.0,418.0 L 433.0,417.0 L 434.0,416.0 L 434.0,315.0 L 435.0,314.0 Z M 654.0,291.0 L 674.0,324.0 L 676.0,362.0 L 661.0,394.0 L 637.0,413.0 L 664.0,428.0 L 686.0,461.0 L 688.0,509.0 L 671.0,543.0 L 651.0,559.0 L 616.0,571.0 L 536.0,573.0 L 535.0,524.0 L 589.0,523.0 L 610.0,518.0 L 628.0,500.0 L 630.0,471.0 L 622.0,455.0 L 602.0,442.0 L 516.0,439.0 L 516.0,572.0 L 482.0,572.0 L 482.0,449.0 L 444.0,485.0 L 425.0,513.0 L 419.0,534.0 L 418.0,572.0 L 386.0,573.0 L 387.0,525.0 L 401.0,486.0 L 481.0,396.0 L 482.0,299.0 L 515.0,265.0 L 516.0,388.0 L 580.0,389.0 L 598.0,385.0 L 614.0,372.0 L 618.0,361.0 L 615.0,334.0 L 608.0,325.0 L 590.0,317.0 L 536.0,316.0 L 535.0,267.0 L 605.0,268.0 L 631.0,276.0 Z M 536.0,210.0 L 531.0,230.0 L 531.0,234.0 L 529.0,239.0 L 527.0,252.0 L 525.0,254.0 L 517.0,245.0 L 514.0,246.0 L 463.0,299.0 L 461.0,298.0 L 462.0,297.0 L 461.0,298.0 L 438.0,278.0 L 398.0,320.0 L 385.0,307.0 L 397.0,293.0 L 409.0,282.0 L 437.0,252.0 L 445.0,258.0 L 460.0,273.0 L 462.0,273.0 L 474.0,262.0 L 485.0,249.0 L 502.0,232.0 L 492.0,222.0 L 493.0,221.0 L 514.0,216.0 L 517.0,214.0 L 527.0,212.0 L 535.0,209.0 Z" fill="#8B53EA" fill-rule="evenodd"/>
</svg>